<svg width="259" height="259" viewBox="0 0 259 259" fill="none" xmlns="http://www.w3.org/2000/svg">
<path fill-rule="evenodd" clip-rule="evenodd" d="M127.589 42.5229L85.0559 85.0559L42.533 42.5229L85.0559 0L127.589 42.5229Z" fill="#F3EB59"/>
<path fill-rule="evenodd" clip-rule="evenodd" d="M258.209 85.0558L215.676 127.584L173.154 85.0558L215.676 42.5229L258.209 85.0558Z" fill="#95D6E5"/>
<path fill-rule="evenodd" clip-rule="evenodd" d="M85.0609 173.143L42.533 215.671L0 173.143L42.533 130.62L85.0609 173.143Z" fill="#F69973"/>
<path fill-rule="evenodd" clip-rule="evenodd" d="M215.681 215.671L173.153 258.209L130.62 215.676L173.153 173.148L215.681 215.671Z" fill="#745DA7"/>
<path fill-rule="evenodd" clip-rule="evenodd" d="M85.0609 173.143L42.533 130.62V42.5279L85.0609 85.0609V173.143Z" fill="#F9D84F"/>
<path fill-rule="evenodd" clip-rule="evenodd" d="M215.681 215.671L173.154 173.148V85.0609L215.681 127.589V215.671Z" fill="#62C4B8"/>
<path fill-rule="evenodd" clip-rule="evenodd" d="M85.0609 85.0558L127.594 42.5229H215.681L173.153 85.0558H85.0609Z" fill="#3BC2E5"/>
<path fill-rule="evenodd" clip-rule="evenodd" d="M42.533 215.671L85.0559 173.148H173.143L130.625 215.676L42.533 215.671Z" fill="#F16F74"/>
</svg>
