<?xml version="1.0" standalone="no"?>
<!DOCTYPE svg PUBLIC "-//W3C//DTD SVG 20010904//EN"
 "http://www.w3.org/TR/2001/REC-SVG-20010904/DTD/svg10.dtd">
<svg version="1.0" xmlns="http://www.w3.org/2000/svg"
 width="700.000000pt" height="700.000000pt" viewBox="0 0 700.000000 700.000000"
 preserveAspectRatio="xMidYMid meet">
<metadata>
Created by potrace 1.11, written by Peter Selinger 2001-2013
</metadata>
<g transform="translate(0.000000,700.000000) scale(0.100000,-0.100000)"
fill="#000000" stroke="none">
<path d="M1723 6426 l-573 -572 0 -1192 0 -1191 -575 -575 -575 -575 576 -576
576 -575 1190 0 1190 0 574 -573 574 -574 575 575 575 575 0 1191 0 1191 570
570 c314 313 570 573 570 577 0 5 -257 265 -570 578 l-570 570 -1190 0 -1190
0 -558 558 c-307 306 -567 564 -578 573 -18 16 -44 -8 -591 -555z m2917 -1726
l45 0 -3 -1190 -2 -1190 -1186 0 c-652 0 -1189 -2 -1192 -4 -4 -2 -6 533 -4
1189 l2 1194 38 3 c27 2 1449 1 2302 -2z"/>
</g>
</svg>
