<svg width="40" height="40" viewBox="0 0 40 40" fill="none" xmlns="http://www.w3.org/2000/svg">
  <path opacity="0.4" fill-rule="evenodd" clip-rule="evenodd" d="M40 20C40 18.4221 38.7208 17.1429 37.1429 17.1429H2.85714C1.27919 17.1429 3.8147e-06 18.4221 3.8147e-06 20C3.8147e-06 21.578 1.27919 22.8572 2.85714 22.8572H37.1429C38.7208 22.8572 40 21.578 40 20Z" fill="#1E232C"/>
  <path fill-rule="evenodd" clip-rule="evenodd" d="M22.0203 35.1226L6.81183 19.9141L20.6776 4.7878C21.7439 3.6246 21.6653 1.81727 20.5021 0.751005C19.3389 -0.315259 17.5315 -0.236679 16.4653 0.926518L0.750996 18.0694C-0.282654 19.197 -0.24481 20.9387 0.836843 22.0203L17.9797 39.1632C19.0955 40.279 20.9045 40.279 22.0203 39.1632C23.1361 38.0474 23.1361 36.2383 22.0203 35.1226Z" fill="#1E232C"/>
</svg>
