<svg width="40" height="40" viewBox="0 0 40 40" fill="none" xmlns="http://www.w3.org/2000/svg">
  <path opacity="0.4" fill-rule="evenodd" clip-rule="evenodd" d="M0 20C0 18.4221 1.27919 17.1429 2.85714 17.1429H37.1429C38.7208 17.1429 40 18.4221 40 20C40 21.578 38.7208 22.8572 37.1429 22.8572H2.85714C1.27919 22.8572 0 21.578 0 20Z" fill="#1E232C"/>
  <path fill-rule="evenodd" clip-rule="evenodd" d="M17.9797 35.1226L33.1882 19.9141L19.3224 4.7878C18.2561 3.6246 18.3347 1.81727 19.4979 0.751005C20.6611 -0.315259 22.4685 -0.236679 23.5347 0.926518L39.249 18.0694C40.2827 19.197 40.2448 20.9387 39.1632 22.0203L22.0203 39.1632C20.9045 40.279 19.0955 40.279 17.9797 39.1632C16.8639 38.0474 16.8639 36.2383 17.9797 35.1226Z" fill="#1E232C"/>
</svg>
