<svg width="44" height="40" viewBox="0 0 44 40" fill="none" xmlns="http://www.w3.org/2000/svg">
  <path opacity="0.4" fill-rule="evenodd" clip-rule="evenodd" d="M34.8938 19.7982L33.361 29.0315C33.3592 29.0422 33.3574 29.0528 33.3554 29.0635C33.1383 30.2624 31.9942 31.0575 30.8001 30.8396L5.81489 26.2788C4.99161 26.1286 4.32478 25.522 4.0949 24.7142L0.0845584 10.6225C0.0284599 10.4254 0 10.2214 0 10.0164C0 8.79785 0.983939 7.81002 2.19769 7.81002H32.3629L33.7104 2.01178C33.9843 0.833541 35.0306 0 36.2357 0H40.7736C42.2057 0 43.3667 1.16556 43.3667 2.60334C43.3667 4.04113 42.2057 5.20668 40.7736 5.20668H38.2934L34.8938 19.7982Z" fill="#1E232C"/>
  <path fill-rule="evenodd" clip-rule="evenodd" d="M9.30253 40C7.4819 40 6.006 38.5183 6.006 36.6904C6.006 34.8626 7.4819 33.3809 9.30253 33.3809C11.1232 33.3809 12.5991 34.8626 12.5991 36.6904C12.5991 38.5183 11.1232 40 9.30253 40ZM29.0817 40C27.2611 40 25.7852 38.5183 25.7852 36.6904C25.7852 34.8626 27.2611 33.3809 29.0817 33.3809C30.9023 33.3809 32.3783 34.8626 32.3783 36.6904C32.3783 38.5183 30.9023 40 29.0817 40Z" fill="#1E232C"/>
</svg>
