<svg width="37" height="40" viewBox="0 0 37 40" fill="none" xmlns="http://www.w3.org/2000/svg">
  <path opacity="0.4" fill-rule="evenodd" clip-rule="evenodd" d="M16.8 36.6655C17.7048 36.9079 18.2417 37.8378 17.9993 38.7426C17.7568 39.6473 16.8269 40.1842 15.9221 39.9418C15.0174 39.6994 14.4805 38.7694 14.7229 37.8647C14.9653 36.9599 15.8953 36.423 16.8 36.6655ZM23.5839 36.6655C24.4886 36.9079 25.0255 37.8378 24.7831 38.7426C24.5407 39.6473 23.6107 40.1842 22.706 39.9418C21.8013 39.6994 21.2643 38.7694 21.5068 37.8647C21.7492 36.9599 22.6792 36.423 23.5839 36.6655ZM10.0162 36.6655C10.9209 36.9079 11.4578 37.8378 11.2154 38.7426C10.973 39.6473 10.043 40.1842 9.1383 39.9418C8.23356 39.6994 7.69665 38.7694 7.93907 37.8647C8.18149 36.9599 9.11145 36.423 10.0162 36.6655ZM18.6556 24.5915C14.909 24.5915 11.8718 21.5542 11.8718 17.8076C11.8718 14.061 14.909 11.0238 18.6556 11.0238C22.4023 11.0238 25.4395 14.061 25.4395 17.8076C25.4395 21.5542 22.4023 24.5915 18.6556 24.5915ZM31.3754 15.2637H33.9193C35.3243 15.2637 36.4632 16.4026 36.4632 17.8076C36.4632 19.2126 35.3243 20.3515 33.9193 20.3515H31.3754C29.9704 20.3515 28.8314 19.2126 28.8314 17.8076C28.8314 16.4026 29.9704 15.2637 31.3754 15.2637ZM25.5424 7.41359L27.3412 5.61475C28.3347 4.62128 29.9454 4.62128 30.9389 5.61475C31.9324 6.60823 31.9324 8.21896 30.9389 9.21243L29.14 11.0113C28.1466 12.0047 26.5358 12.0047 25.5424 11.0113C24.5489 10.0178 24.5489 8.40707 25.5424 7.41359ZM18.6556 0C20.0606 0 21.1996 1.13896 21.1996 2.54394V5.08788C21.1996 6.49287 20.0606 7.63183 18.6556 7.63183C17.2507 7.63183 16.1117 6.49287 16.1117 5.08788V2.54394C16.1117 1.13896 17.2507 0 18.6556 0ZM6.46279 5.61475C7.45626 4.62128 9.06699 4.62128 10.0605 5.61475L11.8593 7.41359C12.8528 8.40707 12.8528 10.0178 11.8593 11.0113C10.8658 12.0047 9.2551 12.0047 8.26162 11.0113L6.46279 9.21243C5.46931 8.21896 5.46931 6.60823 6.46279 5.61475Z" fill="#1E232C"/>
  <path fill-rule="evenodd" clip-rule="evenodd" d="M4.65906 31.4475C1.85557 29.6353 0 26.4821 0 22.8955C0 17.2755 4.55585 12.7197 10.1758 12.7197C14.9173 12.7197 18.9014 15.9626 20.031 20.3515H24.1675C27.6799 20.3515 30.5273 23.1989 30.5273 26.7114C30.5273 30.2238 27.6799 33.0712 24.1675 33.0712H8.9038C7.27259 33.0712 5.78481 32.4571 4.65906 31.4475V31.4475Z" fill="#1E232C"/>
</svg>
