<svg width="40" height="29" viewBox="0 0 40 29" fill="none" xmlns="http://www.w3.org/2000/svg">
  <path fill-rule="evenodd" clip-rule="evenodd" d="M4.39024 0H35.6098C38.0488 0 40 1.95122 40 4.39024V24.3902C40 26.8293 38.0488 28.7805 35.6098 28.7805H4.39024C1.95122 28.7805 0 26.8293 0 24.3902V4.39024C0 1.95122 1.95122 0 4.39024 0ZM33.6585 4.14634L20 11.4634L6.34146 4.14634C5.36585 3.65854 4.39024 3.90244 3.90244 4.87805C3.41463 5.85366 3.65854 6.82927 4.63415 7.07317L19.2683 14.878C19.7561 15.1219 20.2439 15.1219 20.9756 14.878L35.6098 7.07317C36.3415 6.58536 36.8293 5.60976 36.3415 4.87805C35.8537 4.14634 34.6341 3.65854 33.6585 4.14634Z" fill="#1E232C"/>
</svg>
