<svg width="40" height="39" viewBox="0 0 40 39" fill="none" xmlns="http://www.w3.org/2000/svg">
	<path fill-rule="evenodd" clip-rule="evenodd" d="M19.7252 25.1479L25.342 19.5311C26.8738 17.9993 27.3844 15.7015 26.3632 13.659L26.1079 13.1484C25.0867 11.1059 25.5973 8.80816 27.1291 7.2763L34.0225 0.382963C34.5331 -0.127654 35.299 -0.127654 35.8096 0.382963L36.0649 0.638272L38.8733 6.25507C40.9158 10.5953 40.1499 15.7015 36.8309 19.2758L21.5124 34.5944C17.6827 38.424 12.3212 39.7005 7.21505 37.9134L1.08765 35.8709C0.321722 35.3603 -0.188895 34.5944 0.0664134 33.8284C0.0664134 33.5731 0.321722 33.5731 0.321722 33.3178L7.21505 26.4245C8.74691 24.8926 11.0447 24.382 13.0872 25.4032L13.5978 25.6585C15.6402 26.9351 18.1933 26.6798 19.7252 25.1479Z" fill="#1E232C"/>
</svg>
