<svg width="40" height="40" viewBox="0 0 40 40" fill="none" xmlns="http://www.w3.org/2000/svg">
  <path fill-rule="evenodd" clip-rule="evenodd" d="M20 0C31 0 40 9 40 20C40 31 31 40 20 40C9 40 0 31 0 20C0 9 9 0 20 0Z" fill="#1E232C" fill-opacity="0.3"/>
  <path fill-rule="evenodd" clip-rule="evenodd" d="M8.34887 23.3375C11.3489 27.9375 15.3489 30.1375 19.9489 30.1375C24.5489 30.1375 28.5489 27.7375 31.5489 23.3375C32.1489 22.3375 31.9489 21.1375 30.9489 20.5375C29.9489 19.9375 28.7489 20.1375 28.1489 21.1375C25.9489 24.5375 23.1489 26.1375 19.9489 26.1375C16.7489 26.1375 13.9489 24.5375 11.5489 20.9375C10.9489 19.9375 9.74887 19.7375 8.74887 20.3375C7.94887 21.1375 7.74887 22.3375 8.34887 23.3375Z" fill="#1E232C"/>
</svg>
